<svg width="131" height="28" viewBox="0 0 131 28" fill="none" xmlns="http://www.w3.org/2000/svg">
<path d="M20.0521 3.63335V8.91603H13.6858V27.507H7.04858V8.91603H0.75V3.63335H20.0521Z" fill="#050332"/>
<path d="M50.5804 8.50967L45.738 27.507H38.288L35.6467 15.9935L32.9038 27.507H25.4877L20.6791 8.50967H27.2824L29.4158 21.1068L32.2265 8.50967H39.3378L42.25 21.1407L44.3496 8.50967H50.5804Z" fill="#050332"/>
<path d="M59.106 8.50967V27.507H52.4688V8.50967H59.106Z" fill="#050332"/>
<path d="M75.3136 8.34035C77.5034 8.34035 79.2418 9.07405 80.5286 10.5415C81.8154 11.9863 82.4588 13.9504 82.4588 16.4337V27.507H75.8216V17.3141C75.8216 16.2305 75.5394 15.3839 74.975 14.7744C74.4106 14.1423 73.6543 13.8262 72.7061 13.8262C71.7128 13.8262 70.934 14.1423 70.3696 14.7744C69.8052 15.3839 69.523 16.2305 69.523 17.3141V27.507H62.8858V8.50967H69.523V11.2187C70.1099 10.3609 70.9001 9.67231 71.8934 9.15307C72.8867 8.61126 74.0268 8.34035 75.3136 8.34035Z" fill="#050332"/>
<path d="M97.3094 21.8518V27.507H94.4311C89.5773 27.507 87.1504 25.1027 87.1504 20.2941V14.0294H84.8139V8.50967H87.1504V3.90426H93.8215V8.50967H97.2756V14.0294H93.8215V20.3957C93.8215 20.9149 93.9344 21.2874 94.1602 21.5132C94.4085 21.7389 94.8148 21.8518 95.3792 21.8518H97.3094Z" fill="#009D73"/>
<path d="M106.991 8.50967V27.507H100.354V8.50967H106.991Z" fill="#009D73"/>
<path d="M122.657 27.507L117.408 19.7184V27.507H110.771V2.44814H117.408V15.9596L122.657 8.50967H130.615L123.131 18.0591L130.75 27.507H122.657Z" fill="#009D73"/>
<path d="M52.5056 1.09659V6.07894C52.5056 6.5465 52.8855 6.92999 53.3515 6.89159C57.4424 6.55455 58.8663 3.79025 59.0626 2.36392V1.09659C59.0626 0.629036 58.6835 0.250008 58.216 0.250008H53.3522C52.8846 0.250008 52.5056 0.629036 52.5056 1.09659Z" fill="#009D73"/>
<path d="M100.391 1.09659V6.07894C100.391 6.5465 100.771 6.92999 101.237 6.89159C105.328 6.55455 106.752 3.79025 106.948 2.36392V1.09659C106.948 0.629036 106.569 0.250008 106.101 0.250008H101.237C100.77 0.250008 100.391 0.629036 100.391 1.09659Z" fill="#009D73"/>
</svg>
